<svg version="1.1" id="Layer_1" xmlns="http://www.w3.org/2000/svg" xmlns:xlink="http://www.w3.org/1999/xlink" x="0px" y="0px"
	 width="100%" viewBox="0 0 472 362" enable-background="new 0 0 472 362" xml:space="preserve">
<path fill="#FEFEFE" opacity="1.000000" stroke="none" 
	d="
M251.000000,363.000000 
	C167.333344,363.000000 84.166687,363.000000 1.000022,363.000000 
	C1.000015,242.333359 1.000015,121.666718 1.000007,1.000055 
	C158.333298,1.000036 315.666595,1.000036 472.999908,1.000018 
	C472.999939,121.666603 472.999939,242.333206 472.999969,362.999908 
	C399.166656,363.000000 325.333344,363.000000 251.000000,363.000000 
M293.454865,243.586349 
	C268.564392,177.160614 243.639465,110.747726 218.870804,44.276604 
	C217.416428,40.373505 215.523499,39.147484 211.388535,39.184883 
	C187.392700,39.401917 163.393692,39.348186 139.396484,39.233555 
	C136.272766,39.218639 134.828018,40.089241 133.673813,43.178371 
	C97.735428,139.364029 61.668297,235.501602 25.640028,331.653687 
	C25.211601,332.797089 25.032242,334.033783 24.619421,335.699982 
	C26.650156,335.699982 28.126356,335.700043 29.602558,335.699921 
	C52.267094,335.697968 74.933006,335.568390 97.594902,335.812042 
	C101.657730,335.855713 103.318054,334.561096 104.686913,330.883606 
	C124.339424,278.086700 144.145584,225.346970 163.918289,172.594788 
	C167.926056,161.902405 171.948181,151.215408 176.291031,139.654556 
	C183.643417,159.301651 190.626450,177.948303 197.599792,196.598572 
	C214.826660,242.672028 232.049072,288.747131 249.391144,335.417175 
	C249.930740,335.534302 250.470337,335.651428 251.944183,335.706573 
	C276.289307,335.727966 300.634430,335.749359 325.877411,336.024658 
	C348.775146,335.877167 371.672913,335.729645 394.868622,335.580231 
	C395.263947,331.050598 395.787964,327.613342 395.822937,324.171082 
	C395.934662,313.182220 395.988831,302.189301 395.788147,291.202972 
	C395.729309,287.983154 396.707581,285.999420 399.444183,284.306519 
	C418.242889,272.677551 436.965576,260.925720 455.707855,249.205627 
	C457.969757,247.791183 460.202545,246.330124 462.448822,244.890671 
	C444.698364,244.071030 427.399323,244.126648 410.101135,244.033676 
	C405.515228,244.009033 399.457977,245.162247 396.793640,242.760391 
	C394.485229,240.679337 395.925262,234.330215 395.885712,229.865997 
	C395.811188,221.453888 395.864258,213.040665 395.864258,203.936996 
	C394.376099,204.690582 393.662994,204.995102 393.006134,205.392502 
	C372.809265,217.611633 352.645630,229.886292 332.382599,241.994644 
	C330.367889,243.198547 327.764038,243.921646 325.414185,243.972672 
	C314.928955,244.200333 304.436646,244.102844 293.454865,243.586349 
M169.756180,264.154236 
	C161.092224,287.768646 152.428253,311.383026 143.658340,335.286194 
	C165.897858,335.286194 187.390488,335.286194 209.603561,335.286194 
	C198.657776,305.099792 187.921799,275.491943 176.809586,244.846558 
	C174.225891,251.886948 172.111450,257.648651 169.756180,264.154236 
z"/>
<path fill="#205975" opacity="1.000000" stroke="none" 
	d="
M324.979553,335.770752 
	C300.634430,335.749359 276.289307,335.727966 251.301453,335.559021 
	C250.196915,335.214874 249.735107,335.018219 249.273285,334.821594 
	C232.049072,288.747131 214.826660,242.672028 197.599792,196.598572 
	C190.626450,177.948303 183.643417,159.301651 176.291031,139.654556 
	C171.948181,151.215408 167.926056,161.902405 163.918289,172.594788 
	C144.145584,225.346970 124.339424,278.086700 104.686913,330.883606 
	C103.318054,334.561096 101.657730,335.855713 97.594902,335.812042 
	C74.933006,335.568390 52.267094,335.697968 29.602558,335.699921 
	C28.126356,335.700043 26.650156,335.699982 24.619421,335.699982 
	C25.032242,334.033783 25.211601,332.797089 25.640028,331.653687 
	C61.668297,235.501602 97.735428,139.364029 133.673813,43.178371 
	C134.828018,40.089241 136.272766,39.218639 139.396484,39.233555 
	C163.393692,39.348186 187.392700,39.401917 211.388535,39.184883 
	C215.523499,39.147484 217.416428,40.373505 218.870804,44.276604 
	C243.639465,110.747726 268.564392,177.160614 293.705597,244.223953 
	C296.496399,251.701157 299.022339,258.546051 301.579102,265.379395 
	C309.717926,287.131927 317.873596,308.878113 326.004547,330.633575 
	C326.708435,332.516937 328.381165,334.672333 324.979553,335.770752 
z"/>
<path fill="#9BD7E7" opacity="1.000000" stroke="none" 
	d="
M325.428467,335.897705 
	C328.381165,334.672333 326.708435,332.516937 326.004547,330.633575 
	C317.873596,308.878113 309.717926,287.131927 301.579102,265.379395 
	C299.022339,258.546051 296.496399,251.701157 293.951599,244.492188 
	C304.436646,244.102844 314.928955,244.200333 325.414185,243.972672 
	C327.764038,243.921646 330.367889,243.198547 332.382599,241.994644 
	C352.645630,229.886292 372.809265,217.611633 393.006134,205.392502 
	C393.662994,204.995102 394.376099,204.690582 395.864258,203.936996 
	C395.864258,213.040665 395.811188,221.453888 395.885712,229.865997 
	C395.925262,234.330215 394.485229,240.679337 396.793640,242.760391 
	C399.457977,245.162247 405.515228,244.009033 410.101135,244.033676 
	C427.399323,244.126648 444.698364,244.071030 462.448822,244.890671 
	C460.202545,246.330124 457.969757,247.791183 455.707855,249.205627 
	C436.965576,260.925720 418.242889,272.677551 399.444183,284.306519 
	C396.707581,285.999420 395.729309,287.983154 395.788147,291.202972 
	C395.988831,302.189301 395.934662,313.182220 395.822937,324.171082 
	C395.787964,327.613342 395.263947,331.050598 394.868622,335.580231 
	C371.672913,335.729645 348.775146,335.877167 325.428467,335.897705 
z"/>
<path fill="#E9383F" opacity="1.000000" stroke="none" 
	d="
M169.876587,263.782288 
	C172.111450,257.648651 174.225891,251.886948 176.809586,244.846558 
	C187.921799,275.491943 198.657776,305.099792 209.603561,335.286194 
	C187.390488,335.286194 165.897858,335.286194 143.658340,335.286194 
	C152.428253,311.383026 161.092224,287.768646 169.876587,263.782288 
z"/>
<path fill="#9BD7E7" opacity="1.000000" stroke="none" 
	d="
M249.332214,335.119385 
	C249.735107,335.018219 250.196915,335.214874 250.834335,335.590027 
	C250.470337,335.651428 249.930740,335.534302 249.332214,335.119385 
z"/>
</svg>