<svg version="1.1" id="Layer_1" xmlns="http://www.w3.org/2000/svg" xmlns:xlink="http://www.w3.org/1999/xlink" x="0px" y="0px"
	 width="100%" viewBox="0 0 400 400" enable-background="new 0 0 400 400" xml:space="preserve">
<path fill="#000000" opacity="1.000000" stroke="none" 
	d="
M99.450287,220.326080 
	C84.072563,160.009659 120.088341,100.474144 179.585953,87.274712 
	C241.332092,73.576454 301.640045,115.176483 310.146606,177.334549 
	C316.717957,225.351822 290.463837,271.908417 246.063965,291.235596 
	C242.363098,292.846588 239.397903,292.944489 235.856033,290.737091 
	C227.946442,285.807617 219.789932,281.271545 211.696472,276.640839 
	C204.724045,272.651489 203.670349,273.122498 200.339539,282.049469 
	C210.435150,286.260651 220.587280,290.495422 231.487503,295.042236 
	C227.159073,297.893768 223.316010,298.156799 219.589890,298.522888 
	C210.760849,299.390350 201.814758,302.195892 193.210403,297.374359 
	C192.675537,297.074646 191.709488,296.811676 191.329208,297.079163 
	C185.946045,300.865723 182.368317,297.108734 178.663422,294.093719 
	C164.840286,282.844574 151.059784,271.542969 137.228928,260.303375 
	C135.328659,258.759125 133.542068,256.979950 131.081985,256.149963 
	C128.375687,258.615173 128.257172,262.622192 124.822372,265.566406 
	C112.282181,252.855347 104.234184,237.778946 99.450287,220.326080 
M178.469757,195.329803 
	C181.644485,200.064301 183.875916,205.441284 188.107803,210.434143 
	C189.337021,205.674713 187.998947,201.937851 187.666458,198.224594 
	C187.275299,193.856110 188.709610,191.111694 192.445724,188.784286 
	C198.945374,184.735336 205.128189,180.178848 211.459061,175.857452 
	C216.934067,172.120255 217.351349,169.957932 213.779602,164.544113 
	C212.460968,162.545425 210.348221,162.043152 208.388550,161.183899 
	C203.275436,158.942017 197.822968,157.413239 192.560272,154.166931 
	C197.733002,146.315918 202.601089,138.914062 208.142654,132.105438 
	C210.199417,132.775406 210.930740,134.149292 211.833603,135.312729 
	C220.352783,146.290543 220.355148,146.303253 231.876709,138.550049 
	C237.135483,135.011261 242.363190,131.426285 248.125229,127.508537 
	C244.944107,126.345886 242.248367,125.246056 240.790512,127.614731 
	C237.018143,133.743912 230.329788,134.268814 224.657715,136.758926 
	C223.290314,137.359238 221.578171,138.022308 220.755508,136.120239 
	C218.504257,130.915192 216.435440,125.631210 214.157578,120.042816 
	C222.978531,121.132324 222.979401,121.132713 226.424698,113.460548 
	C226.834152,112.548737 227.178543,111.604111 227.639771,110.719894 
	C228.531097,109.011162 228.058884,107.650040 226.986694,106.133774 
	C222.047409,99.148643 216.069489,99.194962 211.305923,106.351334 
	C208.136398,111.112915 205.085495,111.967934 199.897339,109.470245 
	C194.793304,107.013054 189.649307,104.625984 184.652176,101.965248 
	C182.208359,100.664032 180.368958,100.981888 178.297455,102.618233 
	C176.163605,104.303825 174.186859,106.075020 173.211884,108.647057 
	C170.320801,116.274139 165.436554,122.048233 157.947052,125.498428 
	C157.788620,125.571411 157.826126,126.069649 157.774338,126.369949 
	C162.352371,127.599129 165.672653,126.050781 168.499908,122.248505 
	C171.374268,118.382858 174.764893,114.897392 177.984436,111.294594 
	C178.839523,110.337730 179.638779,109.187759 181.272064,109.421135 
	C185.896271,110.081863 189.587921,116.052856 188.009155,120.381599 
	C186.639648,124.136482 185.044189,127.828423 183.964157,131.665161 
	C182.001083,138.638824 178.458481,144.266861 172.457901,148.596054 
	C169.757065,150.544617 165.946365,152.297562 165.409302,156.011978 
	C164.024551,165.589142 157.686081,172.428070 152.927826,180.168030 
	C150.786469,183.651230 148.857010,187.082108 143.834747,186.448227 
	C142.263519,186.249924 141.213898,187.749924 140.151031,188.791748 
	C136.937805,191.941467 133.681091,195.051590 130.579514,198.308731 
	C128.600113,200.387375 126.687050,201.886505 123.646179,200.363541 
	C122.175217,199.626831 120.829124,199.903198 119.810486,201.508850 
	C116.472038,206.771133 113.034500,211.970566 109.635063,217.194153 
	C113.891853,215.688843 117.512123,213.668839 120.958221,211.385910 
	C139.671280,198.989105 159.974014,188.918762 176.364838,173.117355 
	C183.449036,166.287903 190.955688,165.545471 200.905197,170.186172 
	C197.848145,175.223938 193.478592,179.094772 189.806885,183.503937 
	C186.963303,186.918625 184.466751,190.811829 179.502670,191.693497 
	C178.031784,191.954727 177.261826,193.121521 178.469757,195.329803 
M171.476562,256.023132 
	C165.743958,250.213303 160.136475,244.272598 154.240143,238.633972 
	C149.297943,233.907745 147.051300,240.089584 143.998138,241.853394 
	C140.730988,243.740860 143.519165,245.819977 145.000153,247.417648 
	C157.115295,260.487122 169.260223,273.529144 181.450317,286.528687 
	C182.762711,287.928253 183.823456,289.774445 186.399521,290.262054 
	C187.940140,287.225220 189.301788,284.022614 191.123688,281.107635 
	C192.689194,278.602936 192.122467,276.991119 190.181763,275.066284 
	C184.032211,268.967072 178.032364,262.716888 171.476562,256.023132 
M183.916336,257.619812 
	C187.745117,262.686768 191.573914,267.753723 195.742493,273.270325 
	C198.563965,269.725983 200.507721,267.037109 202.711182,264.581299 
	C205.236526,261.766724 204.909470,259.618744 202.223755,256.981384 
	C192.984146,247.908157 183.966003,238.609833 174.825165,229.435440 
	C170.223343,224.816727 168.918793,224.915680 163.786621,230.354462 
	C170.309402,239.196411 176.895111,248.123672 183.916336,257.619812 
M208.482010,238.018143 
	C202.869873,232.369827 197.182281,226.793793 191.675858,221.044235 
	C188.695572,217.932388 186.213791,218.104263 183.315338,221.619034 
	C192.063049,233.160797 200.709412,244.568832 209.324463,255.935577 
	C219.051117,249.179840 219.111450,248.678040 211.809662,241.320374 
	C210.874878,240.378448 209.932831,239.443756 208.482010,238.018143 
M219.816711,257.558838 
	C218.353409,259.296722 216.237747,260.560974 215.537506,263.915436 
	C229.940765,269.746765 244.394043,275.598358 259.061127,281.536469 
	C260.037720,277.389221 257.282806,276.954437 255.632233,275.983643 
	C245.581558,270.072357 235.466507,264.269226 225.319366,258.524597 
	C223.833069,257.683167 222.399872,256.075409 219.816711,257.558838 
M203.066498,218.575012 
	C209.444595,226.957489 215.822693,235.339981 222.334579,243.898285 
	C225.445435,241.641006 228.085312,240.033646 229.617401,236.647232 
	C221.932480,228.985260 214.325180,221.394943 206.710342,213.812195 
	C204.478714,211.589996 202.635834,212.564590 200.938416,214.362686 
	C200.888321,216.019653 201.880997,216.970978 203.066498,218.575012 
M215.693085,208.673874 
	C220.716690,217.665619 227.839767,225.044830 233.749069,233.278259 
	C241.922058,228.125748 241.986374,227.679474 235.855988,221.617203 
	C231.485458,217.295197 227.024429,213.061142 222.756500,208.640381 
	C220.518295,206.322037 218.435608,205.714325 215.693085,208.673874 
M247.229584,249.336578 
	C244.624695,247.865372 242.027130,246.381012 239.413406,244.925659 
	C233.926956,241.870773 232.780762,242.284958 229.653961,248.806717 
	C241.354202,253.792099 253.037704,258.689362 265.407440,262.004791 
	C260.779694,255.932663 253.732773,253.680099 247.229584,249.336578 
M239.079987,205.450836 
	C238.009079,204.406357 236.861679,203.428482 235.882599,202.304047 
	C233.582184,199.662079 231.366241,199.248657 228.716339,202.674408 
	C233.947311,209.381226 239.189651,216.102631 244.377045,222.753571 
	C251.659500,218.335999 251.764816,217.670563 246.442993,212.474503 
	C244.183807,210.268738 241.875061,208.113754 239.079987,205.450836 
M245.161758,231.790390 
	C244.203934,232.849670 242.702286,233.570602 242.973862,236.012756 
	C252.608948,239.898514 262.263367,244.481186 272.822662,247.451050 
	C273.004913,245.197815 272.125519,244.580017 271.306274,244.112030 
	C263.695007,239.764359 256.052124,235.472046 248.420929,231.159256 
	C247.438080,230.603760 246.527054,230.744385 245.161758,231.790390 
M256.995392,210.553223 
	C258.889099,208.788849 258.569977,207.165512 256.800323,205.488480 
	C253.183441,202.060883 249.622818,198.573837 246.046494,195.103577 
	C244.895370,193.986603 243.717529,193.079178 242.221573,194.553406 
	C240.941711,195.814682 241.657669,197.020950 242.484924,198.097244 
	C245.824722,202.442429 249.228348,206.738556 252.570938,211.081635 
	C253.965515,212.893646 255.252670,212.711105 256.995392,210.553223 
M261.914551,226.536896 
	C267.766327,228.643997 273.618073,230.751083 280.538208,233.242874 
	C279.379913,229.934952 277.772675,229.328262 276.407318,228.552429 
	C271.663696,225.856949 266.746521,223.442413 262.149231,220.521408 
	C258.210815,218.019012 256.261292,219.352753 254.667603,223.437119 
	C257.000305,224.429108 259.110840,225.326614 261.914551,226.536896 
M265.912628,209.161438 
	C264.031036,211.611267 265.855774,212.200378 267.718201,212.898804 
	C272.208496,214.582626 276.660217,216.369415 281.152374,218.048080 
	C282.451385,218.533524 283.875183,219.441559 285.719727,217.185013 
	C279.896545,213.580490 274.109497,210.324982 267.937469,207.752899 
	C267.586243,207.606506 266.861481,208.356476 265.912628,209.161438 
M265.062866,200.198685 
	C262.614807,194.874130 257.269501,192.278336 253.621750,188.080490 
	C253.022141,187.390488 252.124939,187.346436 251.393387,187.985107 
	C250.375839,188.873459 250.874023,189.813141 251.506561,190.622391 
	C254.272629,194.161301 257.163025,197.606552 259.836853,201.212891 
	C261.895020,203.988861 263.420563,203.692612 265.062866,200.198685 
M285.921570,202.470261 
	C283.145142,200.982635 280.323669,199.572159 277.604706,197.986053 
	C274.790131,196.344193 273.349823,197.107880 272.844604,200.543793 
	C277.986176,203.201904 283.357544,205.005814 289.004517,206.562469 
	C289.361053,203.999878 287.520935,203.746780 285.921570,202.470261 
M286.397949,193.937088 
	C288.298950,194.417511 290.053131,196.045654 292.828247,194.770889 
	C289.204559,191.220520 285.008087,189.706909 281.063416,187.808426 
	C280.072937,187.331741 279.057953,187.592651 278.613770,188.744156 
	C278.175659,189.879898 278.789276,190.748856 279.735809,191.193558 
	C281.681610,192.107697 283.699646,192.868042 286.397949,193.937088 
M269.425659,190.727448 
	C265.987823,187.908142 263.465881,183.952774 258.215332,181.379166 
	C260.656860,186.765396 263.748749,190.235245 266.984436,193.364883 
	C269.374878,195.676987 270.507660,194.128677 269.425659,190.727448 
M290.119354,185.106094 
	C291.416138,185.453217 292.774261,186.329636 294.157623,184.777100 
	C291.149780,182.114731 287.573029,181.075348 284.473083,179.218109 
	C283.523743,178.649368 282.541412,178.546951 281.906097,179.639725 
	C281.170990,180.904175 281.655579,181.952606 282.908630,182.466827 
	C285.051117,183.346054 287.257172,184.070297 290.119354,185.106094 
M292.020416,175.149094 
	C289.264099,174.086304 286.992462,171.544083 283.446716,172.069199 
	C285.183685,175.527023 289.126984,177.228394 294.184479,176.802078 
	C293.543793,176.259369 293.064697,175.853546 292.020416,175.149094 
M267.183655,180.426086 
	C268.943146,182.893845 270.542114,185.519363 273.503906,187.375381 
	C273.320251,183.481201 270.673279,180.715271 267.183655,180.426086 
M286.697632,165.454788 
	C286.087921,165.387512 285.238495,165.036346 284.915802,165.308899 
	C284.112396,165.987427 284.471130,166.974945 285.290222,167.292236 
	C287.981232,168.334686 290.740326,169.201477 293.473236,170.135757 
	C293.582642,169.781448 293.692078,169.427139 293.801483,169.072830 
	C291.619324,167.961792 289.437195,166.850754 286.697632,165.454788 
M270.912445,174.806961 
	C272.548340,176.585846 273.789520,178.849625 276.434814,179.432343 
	C274.991272,175.748627 271.614197,173.981201 268.626129,171.718750 
	C269.250031,172.589661 269.873962,173.460571 270.912445,174.806961 
M276.265320,171.852844 
	C276.827972,172.358749 277.225159,173.203979 278.544403,172.702301 
	C277.695892,169.219330 274.517273,168.208023 271.787781,166.721649 
	C273.139954,168.281052 274.492157,169.840454 276.265320,171.852844 
z"/>
</svg>