<svg version="1.1" id="Layer_1" xmlns="http://www.w3.org/2000/svg" xmlns:xlink="http://www.w3.org/1999/xlink" x="0px" y="0px"
	 width="100%" viewBox="0 0 267 189" enable-background="new 0 0 267 189" xml:space="preserve">
<path fill="#010101" opacity="1.000000" stroke="none" 
	d="
M186.000000,190.000000 
	C124.000000,190.000000 62.500000,190.000000 1.000000,190.000000 
	C1.000000,127.000000 1.000000,64.000000 1.000000,1.000000 
	C90.000000,1.000000 179.000000,1.000000 268.000000,1.000000 
	C268.000000,64.000000 268.000000,127.000000 268.000000,190.000000 
	C240.833328,190.000000 213.666672,190.000000 186.000000,190.000000 
M129.175400,142.202225 
	C135.007568,142.202469 140.844086,142.327530 146.669174,142.124496 
	C148.347580,142.065994 150.389343,141.498917 151.582977,140.414703 
	C156.017380,136.386795 160.245636,132.119873 164.364761,127.766205 
	C165.284500,126.794090 165.886642,125.106705 165.891800,123.745804 
	C165.979553,100.583908 165.956741,77.421547 165.939514,54.259308 
	C165.936783,50.592525 164.092560,48.747597 160.367844,48.785362 
	C156.202362,48.827602 152.035965,48.772896 147.870316,48.805210 
	C141.117172,48.857597 140.862152,49.070614 140.851089,55.785229 
	C140.819489,74.948265 140.837936,94.111389 140.836746,113.274475 
	C140.836639,115.020355 140.836731,116.766243 140.836731,118.466721 
	C138.271820,118.466721 136.486206,118.466721 134.221878,118.466721 
	C134.221878,116.641502 134.221878,115.020920 134.221878,113.400337 
	C134.221817,94.403885 134.227142,75.407425 134.218826,56.410973 
	C134.215866,49.631531 133.426987,48.822964 126.868034,48.795616 
	C123.368759,48.781025 119.869286,48.780613 116.370033,48.799435 
	C110.337769,48.831879 109.116867,50.039494 109.109749,56.153778 
	C109.089569,73.483856 109.982292,90.873512 108.815300,108.124695 
	C107.926620,121.261681 111.049065,131.480896 121.908157,139.060898 
	C122.309105,139.340775 122.540352,139.923096 122.962250,140.103317 
	C124.726479,140.856918 126.533325,141.510757 129.175400,142.202225 
M78.997681,134.538940 
	C80.694962,142.204636 80.694962,142.202896 88.480797,142.201767 
	C91.811584,142.201294 95.142967,142.251648 98.473022,142.204468 
	C103.726585,142.130066 105.413307,140.119980 104.332756,135.069504 
	C102.942642,128.572174 101.428009,122.101479 99.968712,115.618935 
	C95.407593,95.357323 90.745934,75.117416 86.362709,54.817390 
	C85.352409,50.138397 83.049248,48.402409 78.409142,48.740479 
	C74.433258,49.030151 70.403038,49.028423 66.426888,48.740608 
	C61.842564,48.408772 59.892860,50.474380 58.966515,54.786575 
	C55.930759,68.918159 52.602051,82.986618 49.419739,97.086967 
	C46.604256,109.561920 43.754169,122.029999 41.078522,134.535156 
	C39.807133,140.477264 41.295273,142.138702 47.350075,142.194611 
	C51.346733,142.231506 55.344173,142.181244 59.340908,142.213760 
	C62.698730,142.241074 64.563576,140.716507 65.099792,137.315887 
	C65.583931,134.245605 66.387779,131.225723 67.044594,128.211334 
	C70.786247,128.211334 74.236198,128.211334 77.726562,128.211334 
	C78.124367,130.170898 78.483871,131.941772 78.997681,134.538940 
M217.280624,72.298004 
	C218.446228,72.293015 219.611847,72.289040 220.777451,72.282860 
	C227.627182,72.246567 228.427734,71.424530 228.441422,64.417427 
	C228.447937,61.087269 228.454193,57.757111 228.462952,54.426956 
	C228.472443,50.817627 226.864639,48.802940 223.068832,48.807247 
	C207.749359,48.824627 192.429810,48.798763 177.110397,48.831871 
	C173.710831,48.839218 171.859573,50.546658 171.874466,54.070320 
	C171.892059,58.233143 171.945877,62.397594 171.856323,66.558586 
	C171.769669,70.584976 173.750534,72.339806 177.644424,72.295502 
	C180.781326,72.259804 183.918930,72.288269 187.539688,72.288269 
	C187.539688,74.327629 187.539612,75.948784 187.539703,77.569946 
	C187.540787,96.552803 187.529694,115.535683 187.549652,134.518524 
	C187.556503,141.044785 188.665253,142.154129 195.006516,142.181671 
	C198.336761,142.196121 201.667191,142.191757 204.997452,142.177841 
	C211.816193,142.149338 212.779861,141.192871 212.782715,134.364853 
	C212.790802,115.048965 212.807709,95.733009 212.757248,76.417252 
	C212.750595,73.867203 212.686615,71.588020 217.280624,72.298004 
z"/>
<path fill="#EDEDED" opacity="1.000000" stroke="none" 
	d="
M128.749969,142.201691 
	C126.533325,141.510757 124.726479,140.856918 122.962250,140.103317 
	C122.540352,139.923096 122.309105,139.340775 121.908157,139.060898 
	C111.049065,131.480896 107.926620,121.261681 108.815300,108.124695 
	C109.982292,90.873512 109.089569,73.483856 109.109749,56.153778 
	C109.116867,50.039494 110.337769,48.831879 116.370033,48.799435 
	C119.869286,48.780613 123.368759,48.781025 126.868034,48.795616 
	C133.426987,48.822964 134.215866,49.631531 134.218826,56.410973 
	C134.227142,75.407425 134.221817,94.403885 134.221878,113.400337 
	C134.221878,115.020920 134.221878,116.641502 134.221878,118.466721 
	C136.486206,118.466721 138.271820,118.466721 140.836731,118.466721 
	C140.836731,116.766243 140.836639,115.020355 140.836746,113.274475 
	C140.837936,94.111389 140.819489,74.948265 140.851089,55.785229 
	C140.862152,49.070614 141.117172,48.857597 147.870316,48.805210 
	C152.035965,48.772896 156.202362,48.827602 160.367844,48.785362 
	C164.092560,48.747597 165.936783,50.592525 165.939514,54.259308 
	C165.956741,77.421547 165.979553,100.583908 165.891800,123.745804 
	C165.886642,125.106705 165.284500,126.794090 164.364761,127.766205 
	C160.245636,132.119873 156.017380,136.386795 151.582977,140.414703 
	C150.389343,141.498917 148.347580,142.065994 146.669174,142.124496 
	C140.844086,142.327530 135.007568,142.202469 128.749969,142.201691 
M129.698380,70.502060 
	C129.698380,64.923492 129.698380,59.344921 129.698380,53.707642 
	C124.074265,53.707642 119.168571,53.707642 113.925110,53.707642 
	C113.925110,76.764931 113.920967,99.550560 113.942291,122.336159 
	C113.943047,123.137444 113.902931,124.288177 114.377167,124.686836 
	C120.775848,130.065826 124.512489,138.474976 135.616592,137.952423 
	C144.580704,137.530579 151.422897,135.847137 157.152512,128.731873 
	C159.689880,125.580879 161.252167,122.899429 161.208878,118.745781 
	C161.000671,98.764030 161.115311,78.778908 161.115341,58.794979 
	C161.115341,57.057236 161.115341,55.319489 161.115341,53.735149 
	C155.609695,53.735149 150.849152,53.735149 145.679794,53.735149 
	C145.679794,76.939690 145.679794,99.852135 145.679794,123.037064 
	C140.205231,123.037064 135.153320,123.037064 129.698364,123.037064 
	C129.698364,105.726044 129.698364,88.613808 129.698380,70.502060 
z"/>
<path fill="#EEEEEE" opacity="1.000000" stroke="none" 
	d="
M78.920532,134.125793 
	C78.483871,131.941772 78.124367,130.170898 77.726562,128.211334 
	C74.236198,128.211334 70.786247,128.211334 67.044594,128.211334 
	C66.387779,131.225723 65.583931,134.245605 65.099792,137.315887 
	C64.563576,140.716507 62.698730,142.241074 59.340908,142.213760 
	C55.344173,142.181244 51.346733,142.231506 47.350075,142.194611 
	C41.295273,142.138702 39.807133,140.477264 41.078522,134.535156 
	C43.754169,122.029999 46.604256,109.561920 49.419739,97.086967 
	C52.602051,82.986618 55.930759,68.918159 58.966515,54.786575 
	C59.892860,50.474380 61.842564,48.408772 66.426888,48.740608 
	C70.403038,49.028423 74.433258,49.030151 78.409142,48.740479 
	C83.049248,48.402409 85.352409,50.138397 86.362709,54.817390 
	C90.745934,75.117416 95.407593,95.357323 99.968712,115.618935 
	C101.428009,122.101479 102.942642,128.572174 104.332756,135.069504 
	C105.413307,140.119980 103.726585,142.130066 98.473022,142.204468 
	C95.142967,142.251648 91.811584,142.201294 88.480797,142.201767 
	C80.694962,142.202896 80.694962,142.204636 78.920532,134.125793 
M97.085068,124.424438 
	C92.590218,104.500214 88.121521,84.570038 83.590286,64.654091 
	C81.043510,53.460316 80.992828,53.636150 69.129211,53.338898 
	C65.225014,53.241074 63.730488,54.436737 62.925606,58.291061 
	C59.904045,72.760391 56.451992,87.139366 53.219177,101.565186 
	C50.577904,113.351326 48.019146,125.155968 45.294998,137.537857 
	C49.544987,137.537857 53.344894,137.397171 57.128208,137.587051 
	C59.674423,137.714844 60.617691,136.763672 60.966373,134.282318 
	C61.485504,130.587952 62.437679,126.954430 63.133129,123.640251 
	C69.770889,123.640251 75.692978,123.640251 81.633278,123.640251 
	C82.434120,127.542282 83.015274,131.158020 83.990257,134.664261 
	C84.297508,135.769196 85.610657,137.335922 86.548439,137.397522 
	C90.955261,137.687073 95.391670,137.526367 100.110657,137.526367 
	C99.059097,132.973007 98.165909,129.105392 97.085068,124.424438 
z"/>
<path fill="#F4F4F4" opacity="1.000000" stroke="none" 
	d="
M216.791504,72.308884 
	C212.686615,71.588020 212.750595,73.867203 212.757248,76.417252 
	C212.807709,95.733009 212.790802,115.048965 212.782715,134.364853 
	C212.779861,141.192871 211.816193,142.149338 204.997452,142.177841 
	C201.667191,142.191757 198.336761,142.196121 195.006516,142.181671 
	C188.665253,142.154129 187.556503,141.044785 187.549652,134.518524 
	C187.529694,115.535683 187.540787,96.552803 187.539703,77.569946 
	C187.539612,75.948784 187.539688,74.327629 187.539688,72.288269 
	C183.918930,72.288269 180.781326,72.259804 177.644424,72.295502 
	C173.750534,72.339806 171.769669,70.584976 171.856323,66.558586 
	C171.945877,62.397594 171.892059,58.233143 171.874466,54.070320 
	C171.859573,50.546658 173.710831,48.839218 177.110397,48.831871 
	C192.429810,48.798763 207.749359,48.824627 223.068832,48.807247 
	C226.864639,48.802940 228.472443,50.817627 228.462952,54.426956 
	C228.454193,57.757111 228.447937,61.087269 228.441422,64.417427 
	C228.427734,71.424530 227.627182,72.246567 220.777451,72.282860 
	C219.611847,72.289040 218.446228,72.293015 216.791504,72.308884 
M217.338470,53.425606 
	C203.769257,53.425606 190.200043,53.425606 176.709854,53.425606 
	C176.709854,58.598324 176.709854,63.010376 176.709854,67.971283 
	C182.078888,67.971283 187.134216,67.971283 192.519775,67.971283 
	C192.519775,91.419739 192.519775,114.311890 192.519775,137.347336 
	C197.815109,137.347336 202.738205,137.347336 208.136063,137.347336 
	C208.136063,114.074257 208.136063,91.024490 208.136063,67.617622 
	C213.546341,67.617622 218.488113,67.617622 223.555573,67.617622 
	C223.555573,62.729221 223.555573,58.210270 223.555573,53.425537 
	C221.578186,53.425537 219.933716,53.425537 217.338470,53.425606 
z"/>
<path fill="#060606" opacity="1.000000" stroke="none" 
	d="
M129.698364,71.001816 
	C129.698364,88.613808 129.698364,105.726044 129.698364,123.037064 
	C135.153320,123.037064 140.205231,123.037064 145.679794,123.037064 
	C145.679794,99.852135 145.679794,76.939690 145.679794,53.735149 
	C150.849152,53.735149 155.609695,53.735149 161.115341,53.735149 
	C161.115341,55.319489 161.115341,57.057236 161.115341,58.794979 
	C161.115311,78.778908 161.000671,98.764030 161.208878,118.745781 
	C161.252167,122.899429 159.689880,125.580879 157.152512,128.731873 
	C151.422897,135.847137 144.580704,137.530579 135.616592,137.952423 
	C124.512489,138.474976 120.775848,130.065826 114.377167,124.686836 
	C113.902931,124.288177 113.943047,123.137444 113.942291,122.336159 
	C113.920967,99.550560 113.925110,76.764931 113.925110,53.707642 
	C119.168571,53.707642 124.074265,53.707642 129.698380,53.707642 
	C129.698380,59.344921 129.698380,64.923492 129.698364,71.001816 
z"/>
<path fill="#070707" opacity="1.000000" stroke="none" 
	d="
M97.178894,124.831108 
	C98.165909,129.105392 99.059097,132.973007 100.110657,137.526367 
	C95.391670,137.526367 90.955261,137.687073 86.548439,137.397522 
	C85.610657,137.335922 84.297508,135.769196 83.990257,134.664261 
	C83.015274,131.158020 82.434120,127.542282 81.633278,123.640251 
	C75.692978,123.640251 69.770889,123.640251 63.133129,123.640251 
	C62.437679,126.954430 61.485504,130.587952 60.966373,134.282318 
	C60.617691,136.763672 59.674423,137.714844 57.128208,137.587051 
	C53.344894,137.397171 49.544987,137.537857 45.294998,137.537857 
	C48.019146,125.155968 50.577904,113.351326 53.219177,101.565186 
	C56.451992,87.139366 59.904045,72.760391 62.925606,58.291061 
	C63.730488,54.436737 65.225014,53.241074 69.129211,53.338898 
	C80.992828,53.636150 81.043510,53.460316 83.590286,64.654091 
	C88.121521,84.570038 92.590218,104.500214 97.178894,124.831108 
M70.669281,83.180206 
	C68.997833,92.055405 67.326385,100.930595 65.634010,109.916908 
	C70.429504,109.916908 74.626106,109.916908 79.075882,109.916908 
	C76.920357,98.534683 74.837227,87.534744 72.754097,76.534798 
	C72.469063,76.547043 72.184021,76.559288 71.898979,76.571533 
	C71.536911,78.499557 71.174835,80.427582 70.669281,83.180206 
z"/>
<path fill="#0A0A0A" opacity="1.000000" stroke="none" 
	d="
M217.813858,53.425571 
	C219.933716,53.425537 221.578186,53.425537 223.555573,53.425537 
	C223.555573,58.210270 223.555573,62.729221 223.555573,67.617622 
	C218.488113,67.617622 213.546341,67.617622 208.136063,67.617622 
	C208.136063,91.024490 208.136063,114.074257 208.136063,137.347336 
	C202.738205,137.347336 197.815109,137.347336 192.519775,137.347336 
	C192.519775,114.311890 192.519775,91.419739 192.519775,67.971283 
	C187.134216,67.971283 182.078888,67.971283 176.709854,67.971283 
	C176.709854,63.010376 176.709854,58.598324 176.709854,53.425606 
	C190.200043,53.425606 203.769257,53.425606 217.813858,53.425571 
z"/>
<path fill="#EFEFEF" opacity="1.000000" stroke="none" 
	d="
M70.741028,82.767906 
	C71.174835,80.427582 71.536911,78.499557 71.898979,76.571533 
	C72.184021,76.559288 72.469063,76.547043 72.754097,76.534798 
	C74.837227,87.534744 76.920357,98.534683 79.075882,109.916908 
	C74.626106,109.916908 70.429504,109.916908 65.634010,109.916908 
	C67.326385,100.930595 68.997833,92.055405 70.741028,82.767906 
z"/>
</svg>