<svg id="Layer_1" data-name="Layer 1" xmlns="http://www.w3.org/2000/svg" viewBox="0 0 280 300"><defs><style>.cls-1{fill:#ed2024;}</style></defs><title>special olympics logo</title><path class="cls-1" d="M135.38,175.88l-2.2-.48c-.57-9.91-1.14-19.91-1.71-29.82l-18.11,7.69-2.84-4.3,17-7.4c0-.12,0-.23,0-.34l-6-1.28a64.9,64.9,0,0,1-15.29-5.3,1.28,1.28,0,0,1-.85-1.61c.23-1.2.34-2.42.52-3.82a72.2,72.2,0,0,0,22.63,6.64,86.29,86.29,0,0,1-16.15-16.78l3.4-2.87c.59.75,1.37,1.78,2.19,2.78a84.15,84.15,0,0,0,15.61,14.49c.66.49,1.32,1,2,1.53a4.51,4.51,0,0,1,1.68,3.55q.16,12.18.35,24.36l.21,13Z"/><path class="cls-1" d="M141.41,175.88c.11-5.55.24-11.09.35-16.63q.19-10.41.37-20.82a4.65,4.65,0,0,1,2-3.77c2-1.52,4-3,5.91-4.55a74.5,74.5,0,0,0,13.19-13.6c.16-.21.34-.39.54-.61l3.07,3.23a84.05,84.05,0,0,1-16.07,16.72,71.85,71.85,0,0,0,22.61-6.64c.18,1.54.41,2.95.46,4.37,0,.35-.48.87-.86,1.07a64.36,64.36,0,0,1-16.43,5.56l-4.7,1c0,.13-.07.25-.1.38l17,7.39-2.85,4.3-18.12-7.71c-.56,9.9-1.13,19.89-1.69,29.85l-2.31.47Z"/><path class="cls-1" d="M195.14,118.47c-.27,2.29-.53,4.57-.8,6.85,0,.21-.06.41-.05.41-.22-3.24-.37-6.68-.72-10.09-.21-2-.75-3.93-1.12-5.9a6.24,6.24,0,0,1-.07-1.43c.18-2.85.38-5.7.57-8.35.51,2.5,1.11,5.3,1.64,8.1.25,1.36.37,2.75.55,4.12Z"/><path class="cls-1" d="M180.39,156.11c7.18-9,9.56-19.51,10.16-30.65a64.74,64.74,0,0,1-8.16,16.82,13.89,13.89,0,0,0-.92-1.66c-.54-.7-.39-1.24,0-2,2.3-4.69,4.52-9.42,6.75-14.15a4.47,4.47,0,0,0,.37-1.49,45.45,45.45,0,0,1-12.23,10.11c-.2-1.72-.41-3.2-.49-4.7,0-.26.5-.62.84-.83a38.1,38.1,0,0,0,11.16-9.76c.41-.56.77-1.15,1.29-1.93-1.83-.3-3.48-.53-5.12-.83-2.49-.46-5-1-7.45-1.44-.94-.17-1.2-.66-1.06-1.55s.23-2,.35-3.06c2.59.49,5.1,1,7.63,1.41,2,.33,4,.64,6,.79a2.2,2.2,0,0,1,2.23,1.91,42.31,42.31,0,0,1,1,15.84,49.51,49.51,0,0,1-10,24.95c-.64.82-1.34,1.6-2,2.4l-.33-.18"/><path class="cls-1" d="M103.4,109c.14,1.35.33,2.59.34,3.84,0,.25-.62.65-1,.73-3,.63-6.07,1.19-9.11,1.76-1.1.2-2.21.35-3.48.55a27.14,27.14,0,0,0,6.63,7.57,68.8,68.8,0,0,0,5.77,4.07,1.5,1.5,0,0,1,.84,1.67c-.17,1.2-.27,2.41-.43,3.94a46.39,46.39,0,0,1-12.43-10.23,9.64,9.64,0,0,0,.39,1.22c2.16,4.66,4.27,9.35,6.57,13.94.58,1.18.9,2.06,0,3.12a8.26,8.26,0,0,0-.62,1.12,60.31,60.31,0,0,1-8-16.56c-.47,2.05.92,11,2.42,16A47.45,47.45,0,0,0,98.68,156l-.29.2c-1-1.28-2.11-2.49-3-3.83-7.47-11-10.45-23-8.45-36.15.69-4.5.75-4.44,5.18-5.12,3.31-.52,6.6-1.22,9.89-1.84l1.42-.27"/><path class="cls-1" d="M145.41,82.46l13-5.88c-2.14-.4-3.92-.78-5.72-1s-3.72-.47-5.58-.65-3.73-.29-5.66-.44c0-.4-.06-.74-.11-1.07-.21-1.29.42-1.59,1.57-1.44,4.92.68,9.84,1.32,14.77,2a5.57,5.57,0,0,0,.65,0c-4-3.08-8.4-5.06-12.77-7.15a2,2,0,0,1,3-.85,77.57,77.57,0,0,1,13.23,7.89,4.69,4.69,0,0,1,1.91,3.41,119.8,119.8,0,0,1,1,19.58c-.07,2-.26,4.08-.4,6.14a2.14,2.14,0,0,1-.48,0c-2.81-.79-2.71-.78-2.55-3.76a125.13,125.13,0,0,0-.42-19.57l-13.26,5.5-2.11-2.61"/><path class="cls-1" d="M117.72,102.09l-3.18,1c-.13-2.65-.31-5.17-.38-7.68a102.51,102.51,0,0,1,1.11-18.53,4.75,4.75,0,0,1,1.5-2.75A63.18,63.18,0,0,1,131,65.58c1.22-.53,1.53.56,2.22.93l-12.72,6.94.21.5a82.85,82.85,0,0,1,16.68-2v2.5a94.57,94.57,0,0,0-16.89,2.16l12.9,5.84-2.1,2.62-13.23-5.53a145.22,145.22,0,0,0-.34,22.54"/><path class="cls-1" d="M139.29,109a8.37,8.37,0,1,1-8.36,8.39,8.3,8.3,0,0,1,8.36-8.39"/><path class="cls-1" d="M111.72,103.89l-2.87,1a105.81,105.81,0,0,1,.05-22l-.3-.23c-1.84,2-3.75,3.9-5.52,6S99.69,92.74,98,94.85c-1.08-.88-1.25-1.69-.3-2.76,2.72-3.06,5.35-6.2,8.06-9.28a9.15,9.15,0,0,1,1.57-1.14l-.48-.6c-2.23,1.3-4.52,2.52-6.67,4S96,88.05,94,89.59c-1-.85-.73-1.55.17-2.39a47.93,47.93,0,0,1,12.52-8.48l1.6-.74-7.65-1.55c1.17-2,2-2.38,4.1-2,1.92.34,3.87.66,5.76,1.16s2.28,1.26,1.91,3.18a78.44,78.44,0,0,0-.92,20c.11,1.69.18,3.39.27,5.17"/><path class="cls-1" d="M185.66,88.2l-.76,1.59a48.52,48.52,0,0,0-13.16-8.45c1.95,2.1,3.93,4.17,5.83,6.32,1.24,1.41,2.28,3,3.52,4.39.94,1.06.81,1.89-.27,2.81-3.41-4.15-6.5-8.59-10.92-12.28a105.13,105.13,0,0,1,0,22.29l-1.4-.5-1.43-.49c.12-2.59.2-5.16.36-7.72a70.15,70.15,0,0,0-1-17.06c-.43-2.34-.12-3,2.18-3.59s4.35-.91,6.54-1.28c1.62-.27,2,1.34,3.43,2.11L170.58,78A48.16,48.16,0,0,1,185.66,88.2"/><path class="cls-1" d="M191.26,100.77c0,2.46-.83,4-2.37,4.5s-3.44-.44-4.68-2.37a8.44,8.44,0,0,1-1.15-7.35c.88-2.84,3.51-3.48,5.69-1.44a9.42,9.42,0,0,1,2.51,6.66"/><path class="cls-1" d="M96.71,98.1a8.37,8.37,0,0,1-3.43,6.69c-2.41,1.72-4.77.77-5.42-2.11a8.35,8.35,0,0,1,3.72-8.31,3.19,3.19,0,0,1,3.47-.09c1.4.91,1.59,2.4,1.66,3.82"/><path class="cls-1" d="M118.07,68.23a3.72,3.72,0,0,1-3.77,3.82,3.79,3.79,0,0,1-3.81-3.82,3.74,3.74,0,0,1,3.81-3.8,3.68,3.68,0,0,1,3.77,3.8"/><path class="cls-1" d="M164.6,64.43a3.81,3.81,0,1,1-.15,7.61,3.81,3.81,0,0,1,.15-7.61"/><path class="cls-1" d="M85.15,127.73c-1.53-9.47-1.71-18.83,1.4-28-.08.83-.16,1.66-.23,2.5a3.49,3.49,0,0,0,0,.65,46.8,46.8,0,0,1-.59,12.66c-.67,4-.39,8.08-.54,12.23"/><path class="cls-1" d="M129.41,171.69a3.74,3.74,0,0,1-3.82,3.92,3.8,3.8,0,0,1-3.89-3.87,3.87,3.87,0,0,1,3.91-3.89,3.81,3.81,0,0,1,3.8,3.84m-.55,0a3.3,3.3,0,1,0-6.59,0,3.3,3.3,0,1,0,6.59,0"/><path class="cls-1" d="M86,231.3c-1.76,0-3.52,0-5.28,0s-3-1.15-2.75-3a37.86,37.86,0,0,1,2.57-9.92,3.68,3.68,0,0,1,3.55-2.41c3.61,0,7.22-.07,10.82,0,1.77,0,2.84,1,2.64,2.79a63.55,63.55,0,0,1-1.35,6.81,20.63,20.63,0,0,1-1,3.14,4,4,0,0,1-4,2.65c-1.73,0-3.46,0-5.19,0m.61-2.54c2.15,0,2.48-.24,3-2.33s1.08-4.39,1.6-6.59c.21-.87-.12-1.32-1-1.4-.57,0-1.14,0-1.7,0-1.41,0-1.86.33-2.22,1.69-.57,2.16-1.1,4.33-1.61,6.5-.43,1.85-.2,2.11,1.74,2.14h.18"/><path class="cls-1" d="M136.26,231.25h-6.17c1.56-2.54,1.7-5.47,2.52-8.19.07-.22-.24-.78-.42-.8a7.17,7.17,0,0,0-2.12,0c-.25,0-.53.47-.62.78-.55,2.07-1.09,4.15-1.55,6.25a8.74,8.74,0,0,0,0,1.92H121.6c1.24-1.63,1.45-3.58,1.89-5.44s1.27-3.68,1-5.76h5.2v1a2.39,2.39,0,0,1,2.46-1.12c1.49,0,3-.05,4.47,0a7,7,0,0,1,1.79.64c.36-.63,1.19-.72,2.09-.68,1.17,0,2.33,0,3.5,0,1.71,0,2.54.83,2.3,2.54s-.78,3.55-1.14,5.33c-.22,1.09-.35,2.2-.54,3.45h-6.06c1.51-2.47,1.7-5.29,2.46-7.92.29-1,.14-1.18-.87-1.19-2,0-2,0-2.5,1.92-.41,1.65-.84,3.29-1.2,4.95a16.62,16.62,0,0,0-.15,2.19"/><path class="cls-1" d="M122.76,220c-.73,3-1.44,5.81-2.16,8.67-.32,1.3-.62,2.61-1,3.9a3.69,3.69,0,0,1-3.93,3H104.61c.08-1,.16-1.8.23-2.66,2.69.72,5.34.31,8,.35,1,0,1.41-.85,1.38-2.25-.67.09-1.36.25-2,.28-1.26,0-2.51,0-3.76,0-1.81,0-2.76-.89-2.56-2.66s.76-3.73,1.12-5.59c.18-1,.27-2,.41-3h6c-.29,1.22-.56,2.38-.85,3.55-.35,1.45-.73,2.89-1.08,4.33-.2.84,0,1.1.86,1.16,2.44.15,2.44.15,3-2.24.42-1.68.85-3.36,1.24-5a17,17,0,0,0,.2-1.74Z"/><path class="cls-1" d="M151.84,230.78l-.93,4.71h-5.86c.09-.42.16-.84.27-1.25,1-3.93,2-7.86,2.94-11.79.18-.77.23-1.57.35-2.42h5.31l.12.77c.06,0,.14,0,.16,0a2.28,2.28,0,0,1,2.07-.8c1.49,0,3,0,4.47,0,2,0,2.93.94,2.6,2.91a44.3,44.3,0,0,1-1.32,5.46,4,4,0,0,1-4.06,2.92c-1.49,0-3,.06-4.47,0a7.35,7.35,0,0,1-1.65-.5m2.3-1.78c.79,0,1.77.21,2.09-.77.54-1.66.94-3.37,1.34-5.07.13-.56-.23-.92-.8-.95s-1.13,0-1.7,0a1.12,1.12,0,0,0-1.27,1c-.32,1.36-.69,2.71-1,4.07-.44,1.76-.44,1.76,1.36,1.76"/><path class="cls-1" d="M202.06,219.92c-.07,1-.14,1.8-.21,2.69-2.59-.94-5.25-.41-7.86-.53a.7.7,0,0,0-.75.88,1,1,0,0,0,.79.57c1.37.07,2.75,0,4.12,0,2.51,0,3.49,1.29,2.83,3.69-.13.46-.23.92-.38,1.37a3.51,3.51,0,0,1-3.19,2.64c-3.81.12-7.63,0-11.57,0,.07-.87.15-1.75.21-2.44,1.28.13,2.47.31,3.67.36,1.52.06,3.05,0,4.57,0,.69,0,1-.39,1-1s-.53-.59-1-.6c-1.55,0-3.1,0-4.65-.08-2-.11-2.77-1.33-2.31-3.23.84-3.42,2.14-4.48,5.85-4.41,2.59.05,5.19,0,7.79,0Z"/><path class="cls-1" d="M186.34,220c-.06,1-.12,1.8-.18,2.68-2-.76-4.09-.44-6.1-.4a1.52,1.52,0,0,0-1.09.87c-.51,1.58-.9,3.2-1.28,4.83-.16.69.23,1.06,1,1l5.8-.17c-.24.62-.52,1.39-.86,2.13a.81.81,0,0,1-.62.32c-2.86,0-5.73,0-8.59,0-2,0-2.81-1-2.47-3a41,41,0,0,1,1.34-5.46,3.91,3.91,0,0,1,4.09-2.85h9"/><path class="cls-1" d="M100.2,215.92h6.16c-.76,3.05-1.5,6-2.25,9-.29,1.19-.63,2.36-.87,3.56-.18.88-.22,1.79-.33,2.74h-6.6c1.48-2.34,1.75-5,2.36-7.56s1.68-5,1.53-7.78"/><path class="cls-1" d="M165.93,220h6c-.7,2.84-1.42,5.61-2.06,8.39a27.86,27.86,0,0,0-.36,2.84h-6.47A43.2,43.2,0,0,0,165.93,220"/><path class="cls-1" d="M166.59,218.9l.74-3h5.6c-.22.91-.41,1.78-.66,2.62a.7.7,0,0,1-.51.35c-1.67,0-3.34,0-5.17,0"/><path class="cls-1" d="M90.36,206.78c.08-1,.15-1.91.22-2.83a27.33,27.33,0,0,0,8.31.24,1.79,1.79,0,0,0,1.19-.76c.64-1.13.23-1.72-1.07-1.74-1.7,0-3.4,0-5.09-.14-1.89-.17-2.68-1.15-2.39-3a22.71,22.71,0,0,1,1.14-4.3,4.06,4.06,0,0,1,3.82-2.8c3.81-.1,7.62,0,11.52,0-.06,1-.12,1.95-.17,2.74-1-.13-1.89-.34-2.81-.37-1.73-.06-3.47,0-5.2,0-1.24,0-1.65.4-1.87,1.48-.15.73.12,1.11.85,1.11,1.35,0,2.69,0,4,0,3.48,0,4.58,1.37,3.81,4.78-.17.73-.36,1.45-.59,2.15a4.54,4.54,0,0,1-4.39,3.48c-3.72.1-7.44,0-11.31,0"/><path class="cls-1" d="M114.61,195.51c.06.23.14.48.26.92.64-1.08,1.61-1,2.56-1,1.37,0,2.75,0,4.12,0,2,0,2.91,1.16,2.49,3.1-.35,1.66-.75,3.32-1.22,4.95a4.08,4.08,0,0,1-4.35,3.24c-1.38,0-2.75,0-4.12,0a7.69,7.69,0,0,1-1.75-.48c-.29,1.41-.62,3-1,4.75h-5.84c1.12-5.16,2.7-10.2,3.67-15.48Zm2,2.19c-1.79,0-1.79,0-2.22,1.69-.24,1-.5,1.9-.71,2.86-.51,2.28-1.12,2.29,1.91,2.26a1.46,1.46,0,0,0,1.57-1.07q.64-2.31,1.17-4.65c.15-.68-.17-1.1-.91-1.09h-.81"/><path class="cls-1" d="M177.94,206.71h-5.36c0-.27-.05-.52-.08-.82l-.21.08a6.23,6.23,0,0,1-1.82.74c-1.67.1-3.34.06-5,0s-2.49-.85-2.2-2.57a13.87,13.87,0,0,1,.94-3.06,3.45,3.45,0,0,1,3.48-2h5.1a1.49,1.49,0,0,0,.78-.09,1.41,1.41,0,0,0,.51-.77c0-.11-.33-.47-.5-.46-2.7,0-5.42-.32-8.25.29.33-.8.62-1.59,1-2.35.07-.14.4-.22.6-.22,3.46,0,6.92,0,10.38,0,1.65,0,2.59.94,2.39,2.56-.22,1.82-.75,3.6-1.12,5.41-.22,1.06-.39,2.13-.6,3.27m-4.59-5.37h-2.53c-1.14,0-1.73.82-1.7,2.29,0,1.19.94.79,1.57.87a1.74,1.74,0,0,0,.88,0,2.19,2.19,0,0,0,1.08-.76,15,15,0,0,0,.7-2.38"/><path class="cls-1" d="M139.12,204.14c-.86,2.61-.86,2.61-3.5,2.61H127c-2.31,0-3.24-1.09-2.77-3.36.32-1.57.71-3.14,1.17-4.68a4.1,4.1,0,0,1,4.44-3.25q4.2,0,8.42,0a5.17,5.17,0,0,1,1.24.13c1,.23,1.47.75,1.34,1.71-.23,1.58-.62,3.15-1,4.71,0,.17-.52.33-.79.33-2.66,0-5.32.06-8,0-1,0-1.08.43-1.11,1.16s.38,1,1,1c2,0,4.06,0,6.09,0a13.2,13.2,0,0,0,2-.34m-8.31-4.06c1.21,0,2.41,0,3.62,0,.16,0,.4-.24.45-.41.52-2,.66-2-1.36-2h-.09c-1.89,0-2.33.39-2.62,2.38"/><path class="cls-1" d="M155.18,195.46l-.22,2.67c-2.08-.72-4.17-.42-6.24-.35a1.24,1.24,0,0,0-.89.75c-.49,1.61-.91,3.25-1.3,4.9-.16.7.22,1.09.94,1.07l5.79-.17c-.23.58-.5,1.37-.86,2.13-.07.16-.43.27-.66.27-2.86,0-5.73,0-8.59,0-1.85,0-2.79-1.1-2.45-2.92a44.45,44.45,0,0,1,1.36-5.46,3.92,3.92,0,0,1,4.13-2.9c2.95,0,5.9,0,9,0"/><path class="cls-1" d="M183.5,191.41h6.14c-.24,1-.44,1.9-.67,2.81-.81,3.21-1.64,6.41-2.41,9.62a27.56,27.56,0,0,0-.36,2.86h-6.56c1.46-2.34,1.72-5,2.35-7.56s1.63-5,1.51-7.73"/><path class="cls-1" d="M157.08,195.5h6.23c-.67,2.68-1.35,5.3-2,7.93-.25,1-.35,2.14-.53,3.28h-6.57c1.27-1.67,1.46-3.64,1.91-5.49s1.28-3.67.92-5.72"/><path class="cls-1" d="M164.29,191.37l-.74,3H158c.22-.91.4-1.77.64-2.62a.64.64,0,0,1,.51-.35c1.69,0,3.38,0,5.18,0"/><path class="cls-1" d="M124.29,169.26c1.17.38,2.41.44,3.1,1.1s0,1.46-1.1,1.61c.4.68.74,1.25,1.18,2-1.39-.33-1.11-2.3-2.73-2l-.21,1.85h-.24Zm.63.52-.39.41c.16.42.25,1.16.49,1.22a3.73,3.73,0,0,0,1.73-.22c.11,0,.19-.74.13-.76-.63-.26-1.3-.45-2-.65"/></svg>